<?xml version="1.0" encoding="utf-8"?>
<svg width="24" height="24" id="svg2" version="1.1" xmlns="http://www.w3.org/2000/svg" xmlns:xlink="http://www.w3.org/1999/xlink">
  <defs id="defs4">
    <filter color-interpolation-filters="sRGB" id="filter8702">
      <feGaussianBlur stdDeviation="0.174375" id="feGaussianBlur8704"/>
    </filter>
    <linearGradient id="linearGradient8744" gradientUnits="userSpaceOnUse" x1="24.395184" y1="211.96577" x2="26.870058" y2="213.73354" xlink:href="#linearGradient8210"/>
    <linearGradient id="linearGradient8210">
      <stop style="stop-color:#555753;stop-opacity:1" offset="0" id="stop8212"/>
      <stop style="stop-color:#000000;stop-opacity:1" offset="1" id="stop8214"/>
    </linearGradient>
    <linearGradient id="linearGradient8746" gradientUnits="userSpaceOnUse" gradientTransform="matrix(0.78242868,0,0,1,-0.44535984,-8.2170045)" x1="17.857143" y1="188.43361" x2="18.214287" y2="207.36217" xlink:href="#linearGradient7554"/>
    <linearGradient id="linearGradient7554">
      <stop style="stop-color:#767272;stop-opacity:1" offset="0" id="stop7556"/>
      <stop id="stop7562" offset="0.3995" style="stop-color:#e6e2e2;stop-opacity:1"/>
      <stop style="stop-color:#585858;stop-opacity:1" offset="1" id="stop7558"/>
    </linearGradient>
    <linearGradient id="linearGradient8748" gradientUnits="userSpaceOnUse" spreadMethod="reflect" x1="13.75" y1="188.61218" x2="13.538162" y2="174.68361" xlink:href="#linearGradient7566"/>
    <linearGradient id="linearGradient7566">
      <stop style="stop-color:#ffffff;stop-opacity:1;" offset="0" id="stop7568"/>
      <stop style="stop-color:#ffffff;stop-opacity:0;" offset="1" id="stop7570"/>
    </linearGradient>
    <filter id="filter8088" x="-0.18693478" width="1.3738697" y="-0.038170621" height="1.0763412" color-interpolation-filters="sRGB">
      <feGaussianBlur stdDeviation="0.32944879" id="feGaussianBlur8090"/>
    </filter>
    <linearGradient id="linearGradient8750" gradientUnits="userSpaceOnUse" gradientTransform="matrix(0.89296569,0,0,0.89296569,9.2365828,-4.684735)" x1="24.395184" y1="211.96577" x2="26.870058" y2="213.73354" xlink:href="#linearGradient8210"/>
    <linearGradient id="linearGradient8752" gradientUnits="userSpaceOnUse" x1="24.395184" y1="211.96577" x2="26.870058" y2="213.73354" xlink:href="#linearGradient8210"/>
    <linearGradient id="linearGradient8754" gradientUnits="userSpaceOnUse" gradientTransform="matrix(0.78242868,0,0,1,-0.44535984,-8.2170045)" x1="17.857143" y1="188.43361" x2="18.214287" y2="207.36217" xlink:href="#linearGradient7554"/>
    <linearGradient id="linearGradient8756" gradientUnits="userSpaceOnUse" spreadMethod="reflect" x1="13.75" y1="188.61218" x2="13.538162" y2="174.68361" xlink:href="#linearGradient7566"/>
    <linearGradient id="linearGradient8758" gradientUnits="userSpaceOnUse" gradientTransform="matrix(0.89296569,0,0,0.89296569,9.2365828,-4.684735)" x1="24.395184" y1="211.96577" x2="26.870058" y2="213.73354" xlink:href="#linearGradient8210"/>
    <linearGradient id="linearGradient8361" x1="35.341663" y1="249.94365" x2="39.951534" y2="257.02823" gradientUnits="userSpaceOnUse" gradientTransform="matrix(0.231336, 0, 0, 0.231336, 10.317447, -38.187552)" xlink:href="#linearGradient8355"/>
    <linearGradient id="linearGradient8355">
      <stop style="stop-color:#505050;stop-opacity:1;" offset="0" id="stop8357"/>
      <stop style="stop-color:#505050;stop-opacity:0;" offset="1" id="stop8359"/>
    </linearGradient>
    <filter id="filter8371" color-interpolation-filters="sRGB">
      <feGaussianBlur stdDeviation="0.64658635" id="feGaussianBlur8373"/>
    </filter>
    <linearGradient id="linearGradient8606" gradientUnits="userSpaceOnUse" gradientTransform="matrix(1,0,0,0.99209147,-0.17677665,-6.387385)" x1="43.487068" y1="-429.40109" x2="43.451904" y2="-435.99063" xlink:href="#linearGradient8586"/>
    <linearGradient id="linearGradient8586">
      <stop id="stop8588" offset="0" style="stop-color:#595d5f;stop-opacity:1"/>
      <stop id="stop8590" offset="1" style="stop-color:#cecece;stop-opacity:1"/>
    </linearGradient>
    <linearGradient id="linearGradient8608" gradientUnits="userSpaceOnUse" gradientTransform="translate(-0.17677665,-1.2928932)" x1="43.487068" y1="-429.40109" x2="43.451904" y2="-435.99063" xlink:href="#linearGradient8586"/>
    <linearGradient id="linearGradient8610" gradientUnits="userSpaceOnUse" gradientTransform="translate(-0.17677675,0.70710678)" x1="43.487068" y1="-429.40109" x2="43.451904" y2="-435.99063" xlink:href="#linearGradient8586"/>
    <linearGradient id="linearGradient8638">
      <stop id="stop8640" offset="0" style="stop-color:#e8e8e8;stop-opacity:1"/>
      <stop id="stop8642" offset="1" style="stop-color:#cccccc;stop-opacity:1"/>
    </linearGradient>
    <linearGradient id="linearGradient8548">
      <stop style="stop-color:#ffffff;stop-opacity:1;" offset="0" id="stop8550"/>
      <stop style="stop-color:#ffffff;stop-opacity:0;" offset="1" id="stop8552"/>
    </linearGradient>
    <linearGradient y2="256.16217" x2="45.75" y1="204.56218" x1="23.213203" gradientTransform="matrix(1.0035494,0,0,1.0035494,-2.6372574,-638.71497)" gradientUnits="userSpaceOnUse" id="linearGradient3258" xlink:href="#linearGradient8638"/>
    <linearGradient y2="-437.14926" x2="35.211536" y1="-365.55472" x1="37.550137" gradientTransform="matrix(1.0035494,0,0,1.0035494,-0.15359935,19.314443)" gradientUnits="userSpaceOnUse" id="linearGradient3260" xlink:href="#linearGradient8548"/>
    <linearGradient id="linearGradient8337-7">
      <stop id="stop8339-4" offset="0" style="stop-color:#cdcdcd;stop-opacity:1"/>
      <stop style="stop-color:#848484;stop-opacity:0.63137255;" offset="0.603" id="stop8341-0"/>
      <stop id="stop8343-9" offset="1" style="stop-color:#ffffff;stop-opacity:1"/>
    </linearGradient>
    <linearGradient y2="-280.63693" x2="78.355339" y1="-261.62311" x1="59.043415" gradientTransform="matrix(0.230585, 0, 0, -0.212164, 1.722134, -38.393433)" gradientUnits="userSpaceOnUse" id="linearGradient3276" xlink:href="#linearGradient8337-7"/>
  </defs>
  <g id="g8600" transform="matrix(0.233826, 0, 0, 0.232916, 1.920866, -78.436462)">
    <rect ry="2.5579989" y="-438.92999" x="3.0251262" height="44.351768" width="80.5" id="rect8596" style="fill:url(#linearGradient8606);fill-opacity:1;stroke:none" transform="scale(1,-1)"/>
    <rect transform="scale(1,-1)" style="fill:url(#linearGradient8608);fill-opacity:1;stroke:none" id="rect8592" width="80.5" height="44.705322" x="3.0251262" y="-437.28354" ry="2.5783901"/>
    <rect ry="2.5783901" y="-435.28354" x="3.0251265" height="44.705322" width="80.5" id="rect8512" style="fill:url(#linearGradient8610);fill-opacity:1;stroke:none" transform="scale(1,-1)"/>
    <rect transform="scale(1,-1)" style="fill:url(#linearGradient3258);fill-opacity:1;stroke:url(#linearGradient3260);stroke-width:0.60212964;stroke-miterlimit:4;stroke-dasharray:none" id="rect8556" width="80.785721" height="79.280403" x="2.8822641" y="-433.12564" ry="4.572516"/>
  </g>
  <path style="fill:url(#linearGradient8361);fill-opacity:1;stroke:none;filter:url(#filter8371)" d="M 21.266 17.136 C 20.56 18.63 17.529 21.393 15.092 22.269 C 15.488 22.386 16.487 22.131 16.921 22.131 C 19.347 22.131 21.316 20.161 21.316 17.721 C 21.316 17.524 21.291 17.327 21.266 17.136 Z" id="path8328"/>
  <path style="fill-opacity: 1; stroke: rgb(156, 188, 221); stroke-width: 0.231336; stroke-miterlimit: 4; stroke-opacity: 1; stroke-dasharray: none; fill: rgb(155, 114, 0);" d="M 3.84 3.938 C 3.258 3.938 2.789 4.402 2.789 4.986 L 2.789 9.837 L 21.33 9.837 L 21.33 4.986 C 21.33 4.402 20.86 3.938 20.279 3.938 L 3.84 3.938 Z" id="path8417"/>
  <g id="g8728" transform="matrix(0.231336, 0, 0, 0.231336, 1.238541, -44.035522)">
    <g transform="translate(-11.667262,27.400388)" id="g8686">
      <path style="opacity:0.2;fill:#494949;fill-opacity:1;stroke:none;filter:url(#filter8702)" d="m 34.935976,165.22997 0,6.03125 c 1.990879,1.41488 3.375,4.29378 3.375,7.625 0,3.33694 -1.378583,6.22193 -3.375,7.625 l 0,5.09375 c 4.770259,-0.67805 8.5,-6.32281 8.5,-13.1875 0,-6.86468 -3.729741,-12.50945 -8.5,-13.1875 z" id="path8671"/>
      <path transform="matrix(0.89296569,0,0,0.89296569,9.0989682,-4.271891)" d="m 33.941126,213.73354 c 0,3.51471 -3.165825,6.36396 -7.071068,6.36396 -3.905243,0 -7.071068,-2.84925 -7.071068,-6.36396 0,-3.51472 3.165825,-6.36397 7.071068,-6.36397 3.905243,0 7.071068,2.84925 7.071068,6.36397 z" id="path8490" style="fill:url(#linearGradient8744);fill-opacity:1;stroke:none"/>
      <g transform="matrix(1.1009166,0,0,1.3251757,18.020943,-72.298552)" id="g8492">
        <rect style="fill:url(#linearGradient8746);fill-opacity:1;stroke:none" id="rect8494" width="7.265409" height="20.714285" x="10.173315" y="178.43089" ry="4.6428571"/>
        <rect ry="4.6428571" y="178.43089" x="11.423315" height="20.714285" width="4.2296948" id="rect8496" style="opacity:0.47126435;fill:url(#linearGradient8748);fill-opacity:1;stroke:none;filter:url(#filter8088)" transform="matrix(1.1536481,0,0,1,-1.8122569,0)"/>
      </g>
      <path id="path8498" d="m 29.235268,188.50337 0,2.02982 c 1.087517,0.80934 2.465151,1.30733 3.990822,1.30733 1.520459,0 2.897547,-0.50295 3.990823,-1.30733 l 0,-1.78899 c -1.06783,0.72842 -2.408449,1.16972 -3.853208,1.16972 -1.58806,0 -3.023747,-0.54187 -4.128437,-1.41055 z" style="opacity:0.31836733;fill:url(#linearGradient8750);fill-opacity:1;stroke:none"/>
    </g>
    <g id="g8706" transform="translate(34.935922,27.400388)">
      <path id="path8708" d="m 34.935976,165.22997 0,6.03125 c 1.990879,1.41488 3.375,4.29378 3.375,7.625 0,3.33694 -1.378583,6.22193 -3.375,7.625 l 0,5.09375 c 4.770259,-0.67805 8.5,-6.32281 8.5,-13.1875 0,-6.86468 -3.729741,-12.50945 -8.5,-13.1875 z" style="opacity:0.2;fill:#494949;fill-opacity:1;stroke:none;filter:url(#filter8702)"/>
      <path style="fill:url(#linearGradient8752);fill-opacity:1;stroke:none" id="path8710" d="m 33.941126,213.73354 c 0,3.51471 -3.165825,6.36396 -7.071068,6.36396 -3.905243,0 -7.071068,-2.84925 -7.071068,-6.36396 0,-3.51472 3.165825,-6.36397 7.071068,-6.36397 3.905243,0 7.071068,2.84925 7.071068,6.36397 z" transform="matrix(0.89296569,0,0,0.89296569,9.0989682,-4.271891)"/>
      <g id="g8712" transform="matrix(1.1009166,0,0,1.3251757,18.020943,-72.298552)">
        <rect ry="4.6428571" y="178.43089" x="10.173315" height="20.714285" width="7.265409" id="rect8714" style="fill:url(#linearGradient8754);fill-opacity:1;stroke:none"/>
        <rect transform="matrix(1.1536481,0,0,1,-1.8122569,0)" style="opacity:0.47126435;fill:url(#linearGradient8756);fill-opacity:1;stroke:none;filter:url(#filter8088)" id="rect8716" width="4.2296948" height="20.714285" x="11.423315" y="178.43089" ry="4.6428571"/>
      </g>
      <path style="opacity:0.31836733;fill:url(#linearGradient8758);fill-opacity:1;stroke:none" d="m 29.235268,188.50337 0,2.02982 c 1.087517,0.80934 2.465151,1.30733 3.990822,1.30733 1.520459,0 2.897547,-0.50295 3.990823,-1.30733 l 0,-1.78899 c -1.06783,0.72842 -2.408449,1.16972 -3.853208,1.16972 -1.58806,0 -3.023747,-0.54187 -4.128437,-1.41055 z" id="path8718"/>
    </g>
  </g>
  <text style="white-space: pre; fill: rgb(51, 51, 51); font-family: Arial, sans-serif; font-size: 0.8px;" x="4.758" y="13.776" transform="matrix(11.145781, 0, 0, 13.663375, -50.162834, -168.754791)">MIA</text>
  <path id="path8316" d="M 15.164 22.442 C 18.099 21.692 21.332 18.43 21.495 17.155 C 21.495 17.155 19.254 17.489 15.79 17.114 C 16.034 18.839 15.164 22.442 15.164 22.442 Z" style="fill:url(#linearGradient3276);fill-opacity:1;stroke:none"/>
  <text style="white-space: pre; fill: rgb(51, 51, 51); font-family: Arial, sans-serif; font-size: 0.8px;" x="11.411" y="13.776"> </text>
</svg>